<svg xmlns="http://www.w3.org/2000/svg" xmlns:xlink="http://www.w3.org/1999/xlink" width="500" zoomAndPan="magnify" viewBox="0 0 375 187.499995" height="250" preserveAspectRatio="xMidYMid meet" version="1.2"><defs><clipPath id="819e1d4f53"><rect x="0" width="103" y="0" height="152"/></clipPath><clipPath id="a7c71204fa"><path d="M 6 30 L 87.648438 30 L 87.648438 113 L 6 113 Z M 6 30 "/></clipPath><clipPath id="15731f4fc8"><rect x="0" width="88" y="0" height="152"/></clipPath><clipPath id="d603eb6c98"><rect x="0" width="84" y="0" height="152"/></clipPath><clipPath id="b1284b20d6"><rect x="0" width="84" y="0" height="152"/></clipPath></defs><g id="64e9caa51d"><g transform="matrix(1,0,0,1,14,35)"><g clip-path="url(#819e1d4f53)"><g style="fill:#f47400;fill-opacity:1;"><g transform="translate(0.516459, 110.204846)"><path style="stroke:none" d="M 78.328125 -105.4375 C 83.242188 -103.726562 87.429688 -100.613281 90.890625 -96.09375 C 94.359375 -91.582031 96.09375 -86.460938 96.09375 -80.734375 C 96.09375 -74.910156 94.484375 -69.9375 91.265625 -65.8125 C 88.054688 -61.695312 84.597656 -58.890625 80.890625 -57.390625 C 88.117188 -55.273438 93.335938 -51.804688 96.546875 -46.984375 C 99.765625 -42.171875 101.375 -36.953125 101.375 -31.328125 C 101.375 -25.097656 99.566406 -19.171875 95.953125 -13.546875 C 92.335938 -7.929688 87.46875 -4.171875 81.34375 -2.265625 C 78.625 -1.359375 75.207031 -0.753906 71.09375 -0.453125 C 66.976562 -0.148438 61.957031 0 56.03125 0 L 11 0 L 11 -107.84375 L 56.03125 -107.84375 C 61.25 -107.84375 65.59375 -107.691406 69.0625 -107.390625 C 72.53125 -107.085938 75.617188 -106.4375 78.328125 -105.4375 Z M 74.859375 -77.265625 C 74.859375 -80.078125 74.179688 -82.410156 72.828125 -84.265625 C 71.472656 -86.128906 69.738281 -87.515625 67.625 -88.421875 C 65.71875 -89.222656 62.054688 -89.625 56.640625 -89.625 L 32.6875 -89.625 L 32.6875 -64.921875 L 57.09375 -64.921875 C 68.9375 -64.921875 74.859375 -69.035156 74.859375 -77.265625 Z M 67.484375 -18.828125 C 70.796875 -19.328125 73.53125 -20.707031 75.6875 -22.96875 C 77.84375 -25.226562 78.921875 -28.21875 78.921875 -31.9375 C 78.921875 -36.15625 77.863281 -39.34375 75.75 -41.5 C 73.644531 -43.65625 70.8125 -45.054688 67.25 -45.703125 C 63.6875 -46.359375 59.046875 -46.6875 53.328125 -46.6875 L 32.6875 -46.6875 L 32.6875 -18.21875 L 55.28125 -18.21875 C 60.5 -18.21875 64.566406 -18.421875 67.484375 -18.828125 Z M 67.484375 -18.828125 "/></g></g></g></g><g transform="matrix(1,0,0,1,112,35)"><g clip-path="url(#15731f4fc8)"><g clip-rule="nonzero" clip-path="url(#a7c71204fa)"><g style="fill:#f47400;fill-opacity:1;"><g transform="translate(0.805304, 110.204846)"><path style="stroke:none" d="M 46.234375 -79.828125 C 54.671875 -79.828125 61.953125 -77.921875 68.078125 -74.109375 C 74.203125 -70.296875 78.820312 -65.273438 81.9375 -59.046875 C 85.050781 -52.816406 86.609375 -46.238281 86.609375 -39.3125 C 86.609375 -32.082031 84.972656 -25.328125 81.703125 -19.046875 C 78.441406 -12.773438 73.773438 -7.726562 67.703125 -3.90625 C 61.628906 -0.09375 54.523438 1.8125 46.390625 1.8125 C 39.460938 1.8125 32.9375 0.378906 26.8125 -2.484375 C 20.6875 -5.347656 15.691406 -9.914062 11.828125 -16.1875 C 7.960938 -22.46875 6.03125 -30.425781 6.03125 -40.0625 C 6.03125 -46.789062 7.5625 -53.191406 10.625 -59.265625 C 13.6875 -65.347656 18.253906 -70.296875 24.328125 -74.109375 C 30.398438 -77.921875 37.703125 -79.828125 46.234375 -79.828125 Z M 27.265625 -39.015625 C 27.265625 -31.179688 29.097656 -25.226562 32.765625 -21.15625 C 36.429688 -17.09375 40.921875 -15.0625 46.234375 -15.0625 C 51.554688 -15.0625 56.078125 -17.066406 59.796875 -21.078125 C 63.515625 -25.097656 65.375 -31.125 65.375 -39.15625 C 65.375 -46.59375 63.585938 -52.421875 60.015625 -56.640625 C 56.453125 -60.859375 51.8125 -62.96875 46.09375 -62.96875 C 40.875 -62.96875 36.429688 -60.90625 32.765625 -56.78125 C 29.097656 -52.664062 27.265625 -46.742188 27.265625 -39.015625 Z M 27.265625 -39.015625 "/></g></g></g></g></g><g transform="matrix(1,0,0,1,272,35)"><g clip-path="url(#d603eb6c98)"><g style="fill:#f47400;fill-opacity:1;"><g transform="translate(0.186694, 110.204846)"><path style="stroke:none" d="M 82.390625 -107.84375 L 82.390625 0 L 63.109375 0 L 63.109375 -11.453125 L 62.8125 -11.453125 C 59.5 -6.429688 55.609375 -2.960938 51.140625 -1.046875 C 46.671875 0.859375 42.578125 1.8125 38.859375 1.8125 C 33.140625 1.8125 27.789062 0.253906 22.8125 -2.859375 C 17.84375 -5.972656 13.828125 -10.640625 10.765625 -16.859375 C 7.703125 -23.085938 6.171875 -30.722656 6.171875 -39.765625 C 6.171875 -48.503906 7.648438 -55.882812 10.609375 -61.90625 C 13.578125 -67.925781 17.546875 -72.414062 22.515625 -75.375 C 27.484375 -78.34375 32.984375 -79.828125 39.015625 -79.828125 C 47.847656 -79.828125 55.425781 -76.210938 61.75 -68.984375 L 61.75 -107.84375 Z M 27.40625 -38.859375 C 27.40625 -30.222656 29.035156 -24.019531 32.296875 -20.25 C 35.566406 -16.488281 39.410156 -14.609375 43.828125 -14.609375 C 46.546875 -14.609375 49.285156 -15.3125 52.046875 -16.71875 C 54.804688 -18.125 57.191406 -20.785156 59.203125 -24.703125 C 61.003906 -28.210938 61.90625 -33.535156 61.90625 -40.671875 C 61.90625 -48.203125 60.296875 -53.972656 57.078125 -57.984375 C 53.867188 -62.003906 49.65625 -64.015625 44.4375 -64.015625 L 43.6875 -64.015625 C 37.851562 -63.710938 33.679688 -61.175781 31.171875 -56.40625 C 28.660156 -51.632812 27.40625 -45.785156 27.40625 -38.859375 Z M 27.40625 -38.859375 "/></g></g></g></g><g transform="matrix(1,0,0,1,191,35)"><g clip-path="url(#b1284b20d6)"><g style="fill:#f47400;fill-opacity:1;"><g transform="translate(0.717573, 110.204846)"><path style="stroke:none" d="M 55.734375 -79.828125 C 60.347656 -79.828125 64.363281 -79.046875 67.78125 -77.484375 C 71.195312 -75.929688 73.910156 -74.101562 75.921875 -72 C 78.328125 -69.382812 79.90625 -66.296875 80.65625 -62.734375 C 81.414062 -59.171875 81.796875 -55.226562 81.796875 -50.90625 L 81.796875 0 L 61.15625 0 L 61.15625 -42.625 C 61.15625 -49.851562 60.347656 -55.222656 58.734375 -58.734375 C 57.128906 -62.253906 53.71875 -64.015625 48.5 -64.015625 C 43.582031 -64.015625 39.765625 -62.609375 37.046875 -59.796875 C 34.335938 -56.984375 32.734375 -53.71875 32.234375 -50 C 31.929688 -47.59375 31.703125 -45.4375 31.546875 -43.53125 C 31.398438 -41.625 31.328125 -39.460938 31.328125 -37.046875 L 31.328125 0 L 10.6875 0 L 10.6875 -78.03125 L 30.28125 -78.03125 L 30.28125 -66.578125 C 32.488281 -69.890625 35.773438 -72.925781 40.140625 -75.6875 C 44.503906 -78.445312 49.703125 -79.828125 55.734375 -79.828125 Z M 55.734375 -79.828125 "/></g></g></g></g><g style="fill:#000000;fill-opacity:1;"><g transform="translate(24.939278, 81.238837)"><path style="stroke:none" d="M 24.21875 -33.34375 L 32.8125 -45.9375 L 47.09375 -45.9375 L 31.484375 -24.21875 L 48.515625 0 L 33.609375 0 L 24.21875 -14.28125 L 14.71875 0 L 0.53125 0 L 17.109375 -23.671875 L 1.234375 -45.9375 L 16.140625 -45.9375 Z M 24.21875 -33.34375 "/></g></g></g></svg>